Coordinates
version=1
nRows=21
nColumns=22
inDegrees=yes

Units are S.I. units (second, meters, Newtons, ...)
If the header above contains a line with 'inDegrees', this indicates whether rotational values are in degrees (yes) or radians (no).

endheader
time	pelvis_tilt	pelvis_list	pelvis_rotation	pelvis_tx	pelvis_ty	pelvis_tz	hip_flexion_r	hip_adduction_r	hip_rotation_r	knee_angle_r	ankle_angle_r	subtalar_angle_r	hip_flexion_l	hip_adduction_l	hip_rotation_l	knee_angle_l	ankle_angle_l	subtalar_angle_l	lumbar_extension	lumbar_bending	lumbar_rotation
      1.37000000	     -2.58676419	     -2.11047448	     -5.92993611	     -1.00581446	      0.92756289	     -0.08395762	     -4.56066515	      0.06072536	      5.36212399	     -3.15135990	      6.71723967	      4.63205051	     -3.01211815	     -2.84307597	    -12.41291872	     -8.48410508	     10.82476954	      3.98935043	     -1.35902562	     -1.30914006	     -1.33700367
      1.38000000	     -2.65579614	     -2.08398940	     -5.86482911	     -1.00489036	      0.92733201	     -0.08485244	     -4.41384573	     -0.02531736	      5.31081517	     -3.42542844	      6.93447730	      4.88174351	     -2.99491893	     -2.76247356	    -12.35195353	     -8.46009084	     10.87385792	      3.97793150	     -1.28832552	     -1.31567908	     -1.37597516
      1.39000000	     -2.76237990	     -2.03839708	     -5.78466993	     -1.00397038	      0.92705204	     -0.08582723	     -4.18228832	     -0.12797342	      5.25123392	     -3.78150219	      7.14435341	      5.26090393	     -2.91181230	     -2.66589571	    -12.28421932	     -8.47761218	     10.90002635	      3.93636772	     -1.17264476	     -1.33884529	     -1.45501337
      1.40000000	     -2.80077786	     -2.00235588	     -5.71719179	     -1.00297057	      0.92684211	     -0.08683190	     -3.98237611	     -0.22512719	      5.18917900	     -4.22836228	      7.44349941	      5.46087196	     -2.94172282	     -2.56169682	    -12.22943794	     -8.43140897	     10.95300269	      3.91485785	     -1.13221939	     -1.35693202	     -1.51450922
      1.41000000	     -2.84779481	     -1.95048987	     -5.64313777	     -1.00200006	      0.92661567	     -0.08791696	     -3.71232464	     -0.33638494	      5.11710895	     -4.78463046	      7.75387573	      5.68853573	     -2.95017593	     -2.43767384	    -12.14710959	     -8.39979417	     10.99188466	      3.87491606	     -1.09016357	     -1.39087209	     -1.57206296
      1.42000000	     -2.90043992	     -1.88535174	     -5.56464145	     -1.00102806	      0.92636704	     -0.08906609	     -3.37646017	     -0.45885549	      5.04180758	     -5.45418871	      8.07038141	      5.93425746	     -2.93969863	     -2.29780651	    -12.04313173	     -8.39201986	     11.02877274	      3.80839347	     -1.04228247	     -1.44213989	     -1.62102712
      1.43000000	     -2.91843150	     -1.80549820	     -5.48743756	     -1.00001231	      0.92613110	     -0.09028773	     -3.02530965	     -0.59912195	      4.96780417	     -6.22444894	      8.45358514	      6.11948412	     -2.97515848	     -2.13150248	    -11.96071038	     -8.37009491	     11.06853531	      3.74587836	     -1.03230065	     -1.50748075	     -1.69466008
      1.44000000	     -2.92565672	     -1.70566581	     -5.40992901	     -0.99898453	      0.92587129	     -0.09157311	     -2.62083291	     -0.75910229	      4.89686037	     -7.11768447	      8.86811771	      6.28640992	     -3.01563992	     -1.93918201	    -11.86712181	     -8.36033881	     11.11148027	      3.67142276	     -1.03571485	     -1.59593971	     -1.77660836
      1.45000000	     -2.94163261	     -1.57644238	     -5.32888761	     -0.99796338	      0.92555289	     -0.09293648	     -2.13752823	     -0.94722965	      4.82541836	     -8.13741001	      9.31816056	      6.45036590	     -3.03356442	     -1.71244116	    -11.76204086	     -8.36893902	     11.15609835	      3.57170726	     -1.02913038	     -1.71455913	     -1.86727400
      1.46000000	     -2.94892303	     -1.42324479	     -5.25251917	     -0.99693907	      0.92518197	     -0.09436317	     -1.58851373	     -1.15894548	      4.76739311	     -9.29557786	      9.79768649	      6.59104989	     -3.05748715	     -1.45418413	    -11.65906028	     -8.38458330	     11.21482980	      3.46018152	     -1.03509212	     -1.85776265	     -1.97020863
      1.47000000	     -2.96909165	     -1.24413550	     -5.18184201	     -0.99591883	      0.92472497	     -0.09584856	     -0.94475007	     -1.39388786	      4.71910500	    -10.60328436	     10.28852517	      6.71850629	     -3.06634623	     -1.16390408	    -11.56558282	     -8.39754759	     11.29397733	      3.32011378	     -1.02995938	     -2.02405396	     -2.08925062
      1.48000000	     -2.93868900	     -1.02840365	     -5.11990675	     -0.99492394	      0.92425762	     -0.09737635	     -0.27970216	     -1.66858104	      4.71243293	    -12.04450244	     10.82119086	      6.81089823	     -3.11257938	     -0.82730673	    -11.46734627	     -8.43975868	     11.36675702	      3.20145716	     -1.09336044	     -2.23826054	     -2.19751047
      1.49000000	     -2.93180615	     -0.79205987	     -5.07159793	     -0.99394416	      0.92367746	     -0.09891927	      0.50403367	     -1.95667423	      4.71820446	    -13.65679839	     11.31796754	      6.89902958	     -3.13517383	     -0.46780193	    -11.39231600	     -8.47478911	     11.47459689	      3.04147171	     -1.13338082	     -2.47400031	     -2.32603553
      1.50000000	     -2.88914653	     -0.53140112	     -5.04416231	     -0.99298472	      0.92306177	     -0.10045190	      1.33391659	     -2.26642189	      4.76120063	    -15.41988331	     11.79373261	      6.97197202	     -3.18289583	     -0.07886803	    -11.32706105	     -8.53692938	     11.59542141	      2.88837686	     -1.22562028	     -2.74258373	     -2.44811873
      1.51000000	     -2.82964859	     -0.25198232	     -5.03466448	     -0.99208371	      0.92239288	     -0.10197292	      2.24092791	     -2.58943229	      4.83388279	    -17.34473003	     12.21410562	      7.04163141	     -3.23691049	      0.33199559	    -11.28332450	     -8.61498428	     11.73348303	      2.73188086	     -1.35632809	     -3.03631929	     -2.56777576
      1.52000000	     -2.74508413	      0.04070820	     -5.05201447	     -0.99122328	      0.92168086	     -0.10343537	      3.22085856	     -2.91883388	      4.93131290	    -19.43923093	     12.54922613	      7.11802741	     -3.30478874	      0.75561816	    -11.26857591	     -8.71841343	     11.90302821	      2.57583318	     -1.52950555	     -3.35396924	     -2.68666861
      1.53000000	     -2.64190871	      0.33970989	     -5.09497670	     -0.99044647	      0.92092502	     -0.10482939	      4.29203080	     -3.24403821	      5.05165854	    -21.71538921	     12.74947987	      7.21743382	     -3.36476225	      1.18163762	    -11.27529600	     -8.87208428	     12.11592134	      2.40679886	     -1.74530797	     -3.68947045	     -2.80227863
      1.54000000	     -2.45167467	      0.65231354	     -5.17511224	     -0.98971713	      0.92022099	     -0.10615661	      5.37807131	     -3.58275057	      5.19982058	    -24.16046583	     12.88009389	      7.31434937	     -3.51694717	      1.63129299	    -11.31910915	     -9.02260080	     12.29316107	      2.29459002	     -2.08316843	     -4.05327704	     -2.89683230
      1.55000000	     -2.31246852	      0.96867944	     -5.28550335	     -0.98909422	      0.91939009	     -0.10741312	      6.65901822	     -3.90788467	      5.35911843	    -26.81686128	     12.78141738	      7.46926018	     -3.58929804	      2.07676435	    -11.39718852	     -9.21129355	     12.51901979	      2.11085582	     -2.38062255	     -4.41898702	     -3.00107717
      1.56000000	     -2.15871597	      1.26934819	     -5.42216503	     -0.98853211	      0.91853502	     -0.10857755	      8.03836151	     -4.19991764	      5.54634448	    -29.63676972	     12.43272969	      7.66611762	     -3.65853615	      2.50206093	    -11.50014844	     -9.43473856	     12.81000439	      1.88748948	     -2.71120895	     -4.77730425	     -3.12988694
      1.57000000	     -1.94824508	      1.57750262	     -5.58881173	     -0.98806822	      0.91772038	     -0.10965343	      9.47087184	     -4.47886074	      5.80430224	    -32.60113622	     11.88431069	      7.85825526	     -3.75828575	      2.93652915	    -11.61985368	     -9.70669196	     13.08829207	      1.66010283	     -3.13523704	     -5.15901262	     -3.24346944
